<svg preserveAspectRatio="none" width="100%" height="100%" overflow="visible" style="display: block;" viewBox="0 0 25.6667 25.6667" fill="none" xmlns="http://www.w3.org/2000/svg">
<g id="Container">
<path id="Icon" d="M0 16.3333C0 14.2139 0.884722 12.5174 2.65417 11.2437C4.42361 9.97014 6.45556 9.33333 8.75 9.33333C11.0444 9.33333 13.0764 9.97014 14.8458 11.2437C16.6153 12.5174 17.5 14.2139 17.5 16.3333H0V16.3333M0 21V18.6667H17.5V21H0V21M1.16667 25.6667C0.836111 25.6667 0.559028 25.5549 0.335417 25.3312C0.111806 25.1076 0 24.8306 0 24.5V23.3333H17.5V24.5C17.5 24.8306 17.3882 25.1076 17.1646 25.3312C16.941 25.5549 16.6639 25.6667 16.3333 25.6667H1.16667V25.6667M19.8333 25.6667V16.3333C19.8333 14.1167 19.075 12.2014 17.5583 10.5875C16.0417 8.97361 14.1847 7.89444 11.9875 7.35L11.6667 4.66667H17.5V0H19.8333V4.66667H25.6667L23.7708 23.5667C23.7125 24.1694 23.4646 24.6701 23.0271 25.0688C22.5896 25.4674 22.0694 25.6667 21.4667 25.6667H19.8333V25.6667" fill="currentColor"/>
</g>
</svg>
