<svg preserveAspectRatio="none" width="100%" height="100%" overflow="visible" style="display: block;" viewBox="0 0 18.6667 22.1667" fill="none" xmlns="http://www.w3.org/2000/svg">
<g id="Container">
<path id="Icon" d="M2.33333 22.1667C2.00278 22.1667 1.72569 22.0549 1.50208 21.8312C1.27847 21.6076 1.16667 21.3306 1.16667 21V18.6083C0.816667 18.2194 0.534722 17.7868 0.320833 17.3104C0.106944 16.834 0 16.3139 0 15.75V4.66667C0 3.05278 0.748611 1.87153 2.24583 1.12292C3.74306 0.374306 6.10556 0 9.33333 0C12.6778 0 15.0694 0.359722 16.5083 1.07917C17.9472 1.79861 18.6667 2.99444 18.6667 4.66667V15.75C18.6667 16.3139 18.5597 16.834 18.3458 17.3104C18.1319 17.7868 17.85 18.2194 17.5 18.6083V21C17.5 21.3306 17.3882 21.6076 17.1646 21.8312C16.941 22.0549 16.6639 22.1667 16.3333 22.1667H15.1667C14.8361 22.1667 14.559 22.0549 14.3354 21.8312C14.1118 21.6076 14 21.3306 14 21V19.8333H4.66667V21C4.66667 21.3306 4.55486 21.6076 4.33125 21.8312C4.10764 22.0549 3.83056 22.1667 3.5 22.1667H2.33333V22.1667M9.39167 3.5C11.5306 3.5 13.0812 3.5 14.0437 3.5C15.0062 3.5 15.6333 3.5 15.925 3.5H2.85833C3.20833 3.5 3.86458 3.5 4.82708 3.5C5.78958 3.5 7.31111 3.5 9.39167 3.5V3.5M14 11.6667H4.66667C4.025 11.6667 3.47569 11.6667 3.01875 11.6667C2.56181 11.6667 2.33333 11.6667 2.33333 11.6667V11.6667H16.3333V11.6667C16.3333 11.6667 16.1049 11.6667 15.6479 11.6667C15.191 11.6667 14.6417 11.6667 14 11.6667V11.6667M2.33333 9.33333H16.3333V5.83333H2.33333V9.33333V9.33333M5.25 16.3333C5.73611 16.3333 6.14931 16.1632 6.48958 15.8229C6.82986 15.4826 7 15.0694 7 14.5833C7 14.0972 6.82986 13.684 6.48958 13.3438C6.14931 13.0035 5.73611 12.8333 5.25 12.8333C4.76389 12.8333 4.35069 13.0035 4.01042 13.3438C3.67014 13.684 3.5 14.0972 3.5 14.5833C3.5 15.0694 3.67014 15.4826 4.01042 15.8229C4.35069 16.1632 4.76389 16.3333 5.25 16.3333V16.3333M13.4167 16.3333C13.9028 16.3333 14.316 16.1632 14.6562 15.8229C14.9965 15.4826 15.1667 15.0694 15.1667 14.5833C15.1667 14.0972 14.9965 13.684 14.6562 13.3438C14.316 13.0035 13.9028 12.8333 13.4167 12.8333C12.9306 12.8333 12.5174 13.0035 12.1771 13.3438C11.8368 13.684 11.6667 14.0972 11.6667 14.5833C11.6667 15.0694 11.8368 15.4826 12.1771 15.8229C12.5174 16.1632 12.9306 16.3333 13.4167 16.3333V16.3333M2.85833 3.5H15.925C15.6333 3.16944 15.0062 2.89236 14.0437 2.66875C13.0812 2.44514 11.5306 2.33333 9.39167 2.33333C7.31111 2.33333 5.78958 2.45486 4.82708 2.69792C3.86458 2.94097 3.20833 3.20833 2.85833 3.5V3.5M4.66667 17.5H14C14.6417 17.5 15.191 17.2715 15.6479 16.8146C16.1049 16.3576 16.3333 15.8083 16.3333 15.1667V11.6667H2.33333V15.1667C2.33333 15.8083 2.56181 16.3576 3.01875 16.8146C3.47569 17.2715 4.025 17.5 4.66667 17.5V17.5" fill="currentColor"/>
</g>
</svg>
